# xmcd CD database file
#
# Track frame offsets:
#	150
#	20486
#	32966
#	47282
#	57554
#	71726
#	86880
#	104773
#	121189
#	137018
#	156146
#	171730
#	186118
#	200936
#	214843
#	227523
#	241170
#	251536
#	267839
#
# Disc length: 3819 seconds
#
# Revision: 0
# Processed by: cddbd v1.5.2PL0 Copyright (c) Steve Scherf et al.
# Submitted via: CDex 1.97
#
DISCID=1d0ee913
DTITLE=Various Artist - Adieu 2018 [CD2)
DYEAR=2018
DGENRE=Hits
TTITLE0=Johnny Hallyday - Je Te Promets
TTITLE1=Adamo - Sans Toi Ma Mie
TTITLE2=Nat King Cole - Unforgettable
TTITLE3=Louis Armstrong - What a Wonderful World
TTITLE4=Charles Aznavour - Il Faut Savoir
TTITLE5=Vicky Leandros - Apres Toi
TTITLE6=Kansas - Dust In the Wind
TTITLE7=Don McLean - Vincent
TTITLE8=Gilbert Becaud - Et Maintenant
TTITLE9=Israel Kamakawiwo'ole - Over the Rainbow
TTITLE10=Jeff Buckley - Hallelujah
TTITLE11=James Arthur - Impossible
TTITLE12=Harry Nilsson - Without You
TTITLE13=Diana Ross and Marvin Gaye - You Are Everything
TTITLE14=Boyz II Men - It's So Hard To Say Goodbye
TTITLE15=Walker Brothers - The Sun Ain't Gonna Shine Anymore
TTITLE16=Chet Baker - My Funny Valentine
TTITLE17=Righteous Brothers - Unchained Melody
TTITLE18=Claude Francois - Comme D'habitude
EXTD=YEAR: 2018
EXTT0=
EXTT1=
EXTT2=
EXTT3=
EXTT4=
EXTT5=
EXTT6=
EXTT7=
EXTT8=
EXTT9=
EXTT10=
EXTT11=
EXTT12=
EXTT13=
EXTT14=
EXTT15=
EXTT16=
EXTT17=
EXTT18=
PLAYORDER=
